# xmcd
#
# Track frame offsets: 
#        150
#        13942
#        32970
#        49250
#        60630
#        73720
#        84420
#        94820
#        112552
#        124762
#        136712
#        150185
#        163157
#        178492
#        188762
#
# Disc length: 2670 seconds
#
# Revision: 1
# Processed by: cddbd v1.5.2PL0 Copyright (c) Steve Scherf et al.
# Submitted via: ExactAudioCopyFreeDBPlugin 1.0
#
DISCID=c30a6c0f
DTITLE=Helena Meirelles - Flor da Guavira
DYEAR=1996
DGENRE=Country
TTITLE0=Cambaqua
TTITLE1=Saudades Do Meu Velho Pai
TTITLE2=Chao Batido
TTITLE3=Xote Bem-Te-Vi
TTITLE4=Chuita
TTITLE5=Limpa Banco
TTITLE6=O Passo Do Tico Tico
TTITLE7=Lembraca Do Mato Grosso
TTITLE8=Linda Manha
TTITLE9=Flor Da Guavira
TTITLE10=Vida De Cachorro
TTITLE11=Carreta Campesina
TTITLE12=Virginia
TTITLE13=Durcelina
TTITLE14=Tropeiro
EXTD=YEAR: 1996
EXTT0=
EXTT1=
EXTT2=
EXTT3=
EXTT4=
EXTT5=
EXTT6=
EXTT7=
EXTT8=
EXTT9=
EXTT10=
EXTT11=
EXTT12=
EXTT13=
EXTT14=
PLAYORDER=
